<svg width="36" height="36" viewBox="0 0 36 36" fill="none" xmlns="http://www.w3.org/2000/svg">
<rect width="36" height="36" rx="12" fill="url(#paint0_linear_3367_820)"/>
<path d="M18.58 24H16.4C15.3467 24 14.5333 23.72 13.96 23.16C13.3867 22.6 13.1 21.7933 13.1 20.74V14.4C13.1 13.3467 13.3867 12.54 13.96 11.98C14.5333 11.42 15.3467 11.14 16.4 11.14H18.58C19.62 11.14 20.4267 11.4267 21 12C21.5867 12.56 21.88 13.36 21.88 14.4V15.34C21.88 15.6333 21.7333 15.78 21.44 15.78H19.76C19.48 15.78 19.34 15.6333 19.34 15.34V14.52C19.34 14.0933 19.2467 13.7933 19.06 13.62C18.8867 13.4333 18.5867 13.34 18.16 13.34H16.8C16.3867 13.34 16.0867 13.4333 15.9 13.62C15.7267 13.7933 15.64 14.0933 15.64 14.52V20.62C15.64 21.0467 15.7267 21.3533 15.9 21.54C16.0867 21.7133 16.3867 21.8 16.8 21.8H18.16C18.5867 21.8 18.8867 21.7133 19.06 21.54C19.2467 21.3533 19.34 21.0467 19.34 20.62V19.8C19.34 19.5067 19.48 19.36 19.76 19.36H21.44C21.7333 19.36 21.88 19.5067 21.88 19.8V20.74C21.88 21.78 21.5867 22.5867 21 23.16C20.4267 23.72 19.62 24 18.58 24Z" fill="white"/>
<defs>
<linearGradient id="paint0_linear_3367_820" x1="32" y1="33" x2="3" y2="4" gradientUnits="userSpaceOnUse">
<stop stop-color="#7D9D89"/>
<stop offset="1" stop-color="#2F4858"/>
</linearGradient>
</defs>
</svg>
